<svg xmlns="http://www.w3.org/2000/svg" data-name="Layer 2" viewBox="0 0 256.67 50.08"><g fill="#f8f8f8" data-name="Layer 1"><path d="M39.96 0 24.32 8.98v28.04l-8.63 5-8.68-5.01V27l8.68-4.96 5.58 3.24v-8.1l-5.63-3.2L0 23.08v17.97l15.69 9.04 15.64-9.04V13.01L40.01 8l8.68 5.01v9.97l-8.68 5.05-5.63-3.27v8.06l5.58 3.22 15.79-8.98V8.98L39.96 0z"/><path fill-rule="evenodd" d="M131.73 38.93h7.01V.49h-7.01v38.43zM86.66 11.61c3.32 0 6.08 1.33 8.26 4 2.18 2.67 3.27 5.97 3.27 9.92s-1.09 7.26-3.27 9.92c-2.18 2.67-4.93 4-8.26 4-2.35 0-4.4-.73-6.13-2.18-1.7-1.49-2.94-3.5-3.74-6.03v18.07h-7.01V12.12h7.01v7.69c.8-2.53 2.05-4.52 3.74-5.97 1.73-1.49 3.77-2.23 6.13-2.23zm-2.55 21.45c1.9 0 3.51-.71 4.83-2.13 1.31-1.45 1.97-3.25 1.97-5.4s-.66-3.88-1.97-5.3c-1.31-1.45-2.93-2.18-4.83-2.18-2.11 0-3.86.71-5.25 2.13-1.38 1.42-2.08 3.2-2.08 5.35s.69 3.95 2.08 5.4c1.38 1.42 3.13 2.13 5.25 2.13zm15.94-7.53c0 3.95 1.37 7.26 4.1 9.92 2.74 2.67 6.15 4 10.23 4s7.5-1.34 10.23-4c2.73-2.67 4.1-5.97 4.1-9.92s-1.37-7.26-4.1-9.92c-2.73-2.67-6.15-4-10.23-4s-7.5 1.33-10.23 4c-2.73 2.67-4.1 5.97-4.1 9.92zm9.29 5.4c-1.35-1.45-2.02-3.25-2.02-5.4s.67-3.88 2.02-5.3c1.35-1.45 3.03-2.18 5.04-2.18s3.69.71 5.04 2.13 2.02 3.2 2.02 5.35-.67 3.95-2.02 5.4c-1.35 1.42-3.03 2.13-5.04 2.13s-3.69-.71-5.04-2.13zm94.18 4.52c-2.73-2.67-4.1-5.97-4.1-9.92s1.37-7.26 4.1-9.92c2.74-2.67 6.15-4 10.23-4s7.5 1.33 10.23 4c2.74 2.67 4.1 5.97 4.1 9.92s-1.37 7.26-4.1 9.92c-2.74 2.67-6.15 4-10.23 4s-7.49-1.34-10.23-4zm3.17-9.92c0 2.15.67 3.95 2.02 5.4 1.35 1.42 3.03 2.13 5.04 2.13s3.69-.71 5.04-2.13c1.35-1.45 2.02-3.25 2.02-5.4s-.67-3.93-2.02-5.35c-1.35-1.42-3.03-2.13-5.04-2.13s-3.69.73-5.04 2.18c-1.35 1.42-2.02 3.19-2.02 5.3zm40.06-13.92c2.98 0 5.37 1.04 7.17 3.12 1.83 2.08 2.75 4.73 2.75 7.94v16.26h-7.01V23.92c0-1.73-.55-3.15-1.66-4.26-1.11-1.11-2.49-1.66-4.15-1.66-1.87 0-3.39.56-4.57 1.66-1.18 1.11-1.77 2.53-1.77 4.26v15.01h-7.01V12.12h7.01v6.86c.69-2.28 1.85-4.09 3.48-5.4 1.66-1.31 3.58-1.97 5.77-1.97zm-91.16 20.17 7.17-19.63h7.12l-14.75 37.19h-7.12l3.74-9.45-10.96-27.73h7.58l7.22 19.63zm34.22-19.66v6.72c-1.46-4.38-5.07-6.72-9.87-6.72-7.25 0-11.53 6.33-11.53 12.98s4.25 13.5 11.53 13.5c4.8 0 8.41-3.46 9.87-7.84v5.14c0 2.18-.71 3.98-2.13 5.4-1.42 1.42-3.15 2.13-5.19 2.13-2.77 0-4.83-1.38-6.18-4.16l-6.29 3.32c1.18 2.18 2.86 3.93 5.04 5.25 2.18 1.31 4.66 1.97 7.43 1.97 4.09 0 7.5-1.33 10.23-4 2.73-2.67 4.1-5.97 4.1-9.92V12.12h-7.01zm-2.02 18.08c-1.35 1.35-3.05 2.02-5.09 2.02s-3.64-.67-4.99-2.02c-1.35-1.38-2.02-3.08-2.02-5.09s.67-3.69 2.02-5.04 3.01-2.02 4.99-2.02 3.74.67 5.09 2.02c1.35 1.31 2.02 2.99 2.02 5.04s-.67 3.74-2.02 5.09z"/></g></svg>