<svg xmlns="http://www.w3.org/2000/svg" data-name="Layer 2" viewBox="0 0 251.03 44.84"><path fill="#f8f8f8" d="M50.66 12.52c-9.12 0-16.24 6.92-16.24 16.19s6.95 16.13 16.24 16.13 16.37-6.98 16.37-16.19-6.95-16.13-16.37-16.13zm.07 25.64c-5.19 0-9-4.03-9-9.45s3.74-9.51 8.94-9.51 9.06 4.09 9.06 9.51-3.8 9.45-9 9.45zm18.29-18.6h4.53v24.68h7.25V13.12H69.02v6.44zm-52.84-.36c3.81 0 6.82 2.35 7.97 5.84h7.67c-1.39-7.46-7.55-12.52-15.58-12.52C7.12 12.52 0 19.44 0 28.71s6.95 16.13 16.24 16.13c7.85 0 14.13-5.06 15.52-12.58h-7.61c-1.09 3.49-4.11 5.9-7.91 5.9-5.25 0-8.94-4.03-8.94-9.45 0-5.48 3.63-9.51 8.88-9.51zm190.53 6.5-5.31-.78c-2.54-.36-4.35-1.2-4.35-3.19 0-2.17 2.36-3.25 5.56-3.25 3.5 0 5.74 1.5 6.22 3.97h7c-.79-6.26-5.62-9.93-13.04-9.93s-12.74 3.91-12.74 9.45 3.32 8.37 10.02 9.33l5.31.78c2.6.36 4.05 1.39 4.05 3.31 0 2.47-2.54 3.49-6.04 3.49-4.29 0-6.7-1.75-7.07-4.39h-7.13c.67 6.08 5.43 10.35 14.13 10.35 7.91 0 13.16-3.61 13.16-9.81 0-5.54-3.8-8.43-9.78-9.33zM77.18.3c-2.66 0-4.65 1.93-4.65 4.57s1.99 4.57 4.65 4.57 4.65-1.93 4.65-4.57S79.84.3 77.18.3zm106.34 23.48c0-6.74-4.11-11.25-12.8-11.25-8.21 0-12.8 4.15-13.71 10.53h7.19c.36-2.47 2.29-4.51 6.4-4.51 3.68 0 5.5 1.62 5.5 3.61 0 2.59-3.32 3.25-7.43 3.67-5.56.6-12.44 2.53-12.44 9.75 0 5.6 4.17 9.21 10.81 9.21 5.19 0 8.45-2.17 10.09-5.6.24 3.07 2.54 5.06 5.74 5.06h4.23v-6.44h-3.56V23.78zm-7.13 7.82c0 4.15-3.62 7.22-8.03 7.22-2.72 0-5.01-1.14-5.01-3.55 0-3.07 3.68-3.91 7.07-4.27 3.26-.3 5.07-1.02 5.98-2.41v3.01zm-38.46-19.08c-4.05 0-7.43 1.69-9.84 4.51V0h-7.25v44.24h7.13v-4.09c2.42 2.95 5.86 4.69 9.96 4.69 8.7 0 15.28-6.86 15.28-16.13s-6.7-16.19-15.28-16.19zm-1.09 25.64c-5.19 0-9-4.03-9-9.45s3.86-9.51 9.06-9.51 8.94 4.03 8.94 9.51-3.8 9.45-9 9.45zM103.5 12.52c-4.71 0-7.79 1.93-9.6 4.63v-4.03h-7.19v31.12h7.25V27.33c0-4.76 3.02-8.13 7.49-8.13 4.17 0 6.76 2.95 6.76 7.22v17.82h7.25V25.88c0-7.83-4.04-13.36-11.95-13.36zm147.53 15.17c0-8.91-6.52-15.17-15.28-15.17-9.3 0-16.12 6.98-16.12 16.19 0 9.69 7.31 16.13 16.24 16.13 7.55 0 13.47-4.45 14.98-10.77h-7.55c-1.09 2.77-3.74 4.33-7.31 4.33-4.65 0-8.15-2.89-8.94-7.95h23.97v-2.77zm-23.55-2.41c1.15-4.33 4.41-6.44 8.15-6.44 4.11 0 7.25 2.35 7.97 6.44h-16.12z" data-name="Layer 1"/></svg>